<mxfile host="app.diagrams.net" agent="Mozilla/5.0 (Windows NT 10.0; Win64; x64) AppleWebKit/537.36 (KHTML, like Gecko) Chrome/138.0.0.0 Safari/537.36" version="28.0.7">
  <diagram name="Page-1" id="LGfOU7Y9wT44Xu7Mixe1">
    <mxGraphModel grid="1" page="1" gridSize="10" guides="1" tooltips="1" connect="1" arrows="1" fold="1" pageScale="1" pageWidth="850" pageHeight="1100" math="0" shadow="0">
      <root>
        <mxCell id="0" />
        <mxCell id="1" parent="0" />
        <mxCell id="1dddkPMk4_G3S4zmDJPk-1" value="&lt;font size=&quot;1&quot;&gt;SEARCH&lt;/font&gt;" style="ellipse;whiteSpace=wrap;html=1;" vertex="1" parent="1">
          <mxGeometry x="170" y="90" width="120" height="80" as="geometry" />
        </mxCell>
        <mxCell id="1dddkPMk4_G3S4zmDJPk-2" value="SHOW TIME" style="ellipse;whiteSpace=wrap;html=1;" vertex="1" parent="1">
          <mxGeometry x="170" y="190" width="120" height="80" as="geometry" />
        </mxCell>
        <mxCell id="1dddkPMk4_G3S4zmDJPk-3" value="CANCEL BOOKING" style="ellipse;whiteSpace=wrap;html=1;" vertex="1" parent="1">
          <mxGeometry x="180" y="530" width="120" height="80" as="geometry" />
        </mxCell>
        <mxCell id="1dddkPMk4_G3S4zmDJPk-4" value="PAYMENT" style="ellipse;whiteSpace=wrap;html=1;" vertex="1" parent="1">
          <mxGeometry x="180" y="420" width="120" height="80" as="geometry" />
        </mxCell>
        <mxCell id="1dddkPMk4_G3S4zmDJPk-5" value="BOOKING" style="ellipse;whiteSpace=wrap;html=1;" vertex="1" parent="1">
          <mxGeometry x="170" y="300" width="120" height="80" as="geometry" />
        </mxCell>
        <mxCell id="1dddkPMk4_G3S4zmDJPk-6" value="FILTER BASED ON LANGUAGE" style="ellipse;whiteSpace=wrap;html=1;" vertex="1" parent="1">
          <mxGeometry x="365" y="90" width="120" height="80" as="geometry" />
        </mxCell>
        <mxCell id="1dddkPMk4_G3S4zmDJPk-7" value="MANAGE BOOKING&amp;nbsp;" style="ellipse;whiteSpace=wrap;html=1;" vertex="1" parent="1">
          <mxGeometry x="570" y="210" width="120" height="80" as="geometry" />
        </mxCell>
        <mxCell id="1dddkPMk4_G3S4zmDJPk-8" value="MANAGE SHOWTIME" style="ellipse;whiteSpace=wrap;html=1;" vertex="1" parent="1">
          <mxGeometry x="580" y="340" width="120" height="80" as="geometry" />
        </mxCell>
        <mxCell id="1dddkPMk4_G3S4zmDJPk-9" value="GENERATE REPORTS" style="ellipse;whiteSpace=wrap;html=1;" vertex="1" parent="1">
          <mxGeometry x="580" y="470" width="120" height="80" as="geometry" />
        </mxCell>
        <mxCell id="1dddkPMk4_G3S4zmDJPk-42" style="edgeStyle=orthogonalEdgeStyle;rounded=0;orthogonalLoop=1;jettySize=auto;html=1;exitX=0.75;exitY=0;exitDx=0;exitDy=0;" edge="1" parent="1">
          <mxGeometry relative="1" as="geometry">
            <mxPoint x="608" y="20" as="targetPoint" />
            <mxPoint x="607.5000000000002" y="30" as="sourcePoint" />
          </mxGeometry>
        </mxCell>
        <mxCell id="1dddkPMk4_G3S4zmDJPk-12" value="Actor" style="shape=umlActor;verticalLabelPosition=bottom;verticalAlign=top;html=1;outlineConnect=0;" vertex="1" parent="1">
          <mxGeometry x="30" y="260" width="30" height="60" as="geometry" />
        </mxCell>
        <mxCell id="1dddkPMk4_G3S4zmDJPk-15" value="Actor" style="shape=umlActor;verticalLabelPosition=bottom;verticalAlign=top;html=1;outlineConnect=0;" vertex="1" parent="1">
          <mxGeometry x="800" y="260" width="30" height="60" as="geometry" />
        </mxCell>
        <mxCell id="1dddkPMk4_G3S4zmDJPk-17" value="" style="endArrow=none;html=1;rounded=0;" edge="1" parent="1" target="1dddkPMk4_G3S4zmDJPk-1">
          <mxGeometry width="50" height="50" relative="1" as="geometry">
            <mxPoint x="70" y="270" as="sourcePoint" />
            <mxPoint x="120" y="240" as="targetPoint" />
          </mxGeometry>
        </mxCell>
        <mxCell id="1dddkPMk4_G3S4zmDJPk-19" value="" style="endArrow=none;html=1;rounded=0;" edge="1" parent="1" target="1dddkPMk4_G3S4zmDJPk-5">
          <mxGeometry width="50" height="50" relative="1" as="geometry">
            <mxPoint x="80" y="290" as="sourcePoint" />
            <mxPoint x="120" y="250" as="targetPoint" />
          </mxGeometry>
        </mxCell>
        <mxCell id="1dddkPMk4_G3S4zmDJPk-21" value="" style="endArrow=none;html=1;rounded=0;" edge="1" parent="1" source="1dddkPMk4_G3S4zmDJPk-12" target="1dddkPMk4_G3S4zmDJPk-3">
          <mxGeometry width="50" height="50" relative="1" as="geometry">
            <mxPoint x="147.0967741935483" y="450" as="sourcePoint" />
            <mxPoint x="110" y="265" as="targetPoint" />
          </mxGeometry>
        </mxCell>
        <mxCell id="1dddkPMk4_G3S4zmDJPk-24" value="" style="endArrow=none;html=1;rounded=0;exitX=1;exitY=0;exitDx=0;exitDy=0;" edge="1" parent="1" source="1dddkPMk4_G3S4zmDJPk-8">
          <mxGeometry width="50" height="50" relative="1" as="geometry">
            <mxPoint x="760" y="340" as="sourcePoint" />
            <mxPoint x="810" y="290" as="targetPoint" />
          </mxGeometry>
        </mxCell>
        <mxCell id="1dddkPMk4_G3S4zmDJPk-37" value="" style="endArrow=classic;html=1;rounded=0;entryX=1;entryY=0.5;entryDx=0;entryDy=0;" edge="1" parent="1" target="1dddkPMk4_G3S4zmDJPk-1">
          <mxGeometry width="50" height="50" relative="1" as="geometry">
            <mxPoint x="365" y="130" as="sourcePoint" />
            <mxPoint x="415" y="80" as="targetPoint" />
          </mxGeometry>
        </mxCell>
        <mxCell id="1dddkPMk4_G3S4zmDJPk-44" value="BOOK MY SHOW" style="rounded=1;whiteSpace=wrap;html=1;" vertex="1" parent="1">
          <mxGeometry x="330" y="700" width="190" height="30" as="geometry" />
        </mxCell>
        <mxCell id="1dddkPMk4_G3S4zmDJPk-48" value="CUSTOMER" style="rounded=0;whiteSpace=wrap;html=1;" vertex="1" parent="1">
          <mxGeometry x="10" y="365" width="90" height="30" as="geometry" />
        </mxCell>
        <mxCell id="1dddkPMk4_G3S4zmDJPk-49" value="" style="swimlane;startSize=0;" vertex="1" parent="1">
          <mxGeometry y="40" width="850" height="600" as="geometry" />
        </mxCell>
        <mxCell id="1dddkPMk4_G3S4zmDJPk-51" value="" style="endArrow=none;html=1;rounded=0;" edge="1" parent="1dddkPMk4_G3S4zmDJPk-49" target="1dddkPMk4_G3S4zmDJPk-2">
          <mxGeometry width="50" height="50" relative="1" as="geometry">
            <mxPoint x="70" y="240" as="sourcePoint" />
            <mxPoint x="120" y="190" as="targetPoint" />
          </mxGeometry>
        </mxCell>
        <mxCell id="1dddkPMk4_G3S4zmDJPk-52" value="" style="endArrow=none;html=1;rounded=0;" edge="1" parent="1dddkPMk4_G3S4zmDJPk-49" target="1dddkPMk4_G3S4zmDJPk-4">
          <mxGeometry width="50" height="50" relative="1" as="geometry">
            <mxPoint x="70" y="270" as="sourcePoint" />
            <mxPoint x="120" y="220" as="targetPoint" />
          </mxGeometry>
        </mxCell>
        <mxCell id="1dddkPMk4_G3S4zmDJPk-53" value="" style="endArrow=none;html=1;rounded=0;" edge="1" parent="1dddkPMk4_G3S4zmDJPk-49" target="1dddkPMk4_G3S4zmDJPk-7">
          <mxGeometry width="50" height="50" relative="1" as="geometry">
            <mxPoint x="790" y="250" as="sourcePoint" />
            <mxPoint x="840" y="200" as="targetPoint" />
          </mxGeometry>
        </mxCell>
        <mxCell id="1dddkPMk4_G3S4zmDJPk-54" value="" style="endArrow=none;html=1;rounded=0;" edge="1" parent="1dddkPMk4_G3S4zmDJPk-49" source="1dddkPMk4_G3S4zmDJPk-9">
          <mxGeometry width="50" height="50" relative="1" as="geometry">
            <mxPoint x="740" y="330" as="sourcePoint" />
            <mxPoint x="790" y="280" as="targetPoint" />
          </mxGeometry>
        </mxCell>
        <mxCell id="1dddkPMk4_G3S4zmDJPk-55" value="&amp;lt;&amp;lt;INCLUDE&amp;gt;&amp;gt;" style="rounded=1;whiteSpace=wrap;html=1;" vertex="1" parent="1dddkPMk4_G3S4zmDJPk-49">
          <mxGeometry x="390" y="280" width="100" height="30" as="geometry" />
        </mxCell>
        <mxCell id="1dddkPMk4_G3S4zmDJPk-56" value="LOGIN" style="ellipse;whiteSpace=wrap;html=1;" vertex="1" parent="1dddkPMk4_G3S4zmDJPk-49">
          <mxGeometry x="370" y="410" width="110" height="30" as="geometry" />
        </mxCell>
        <mxCell id="1dddkPMk4_G3S4zmDJPk-57" value="" style="endArrow=none;dashed=1;html=1;dashPattern=1 3;strokeWidth=2;rounded=0;" edge="1" parent="1dddkPMk4_G3S4zmDJPk-49">
          <mxGeometry width="50" height="50" relative="1" as="geometry">
            <mxPoint x="290" y="300" as="sourcePoint" />
            <mxPoint x="390" y="295" as="targetPoint" />
          </mxGeometry>
        </mxCell>
        <mxCell id="1dddkPMk4_G3S4zmDJPk-58" value="" style="endArrow=none;dashed=1;html=1;dashPattern=1 3;strokeWidth=2;rounded=0;exitX=0.5;exitY=0;exitDx=0;exitDy=0;" edge="1" parent="1dddkPMk4_G3S4zmDJPk-49" source="1dddkPMk4_G3S4zmDJPk-56">
          <mxGeometry width="50" height="50" relative="1" as="geometry">
            <mxPoint x="390" y="360" as="sourcePoint" />
            <mxPoint x="440" y="310" as="targetPoint" />
          </mxGeometry>
        </mxCell>
        <mxCell id="1dddkPMk4_G3S4zmDJPk-59" value="" style="endArrow=none;dashed=1;html=1;dashPattern=1 3;strokeWidth=2;rounded=0;" edge="1" parent="1dddkPMk4_G3S4zmDJPk-49" source="1dddkPMk4_G3S4zmDJPk-3">
          <mxGeometry width="50" height="50" relative="1" as="geometry">
            <mxPoint x="370" y="490" as="sourcePoint" />
            <mxPoint x="420" y="440" as="targetPoint" />
          </mxGeometry>
        </mxCell>
        <mxCell id="1dddkPMk4_G3S4zmDJPk-60" value="" style="endArrow=none;dashed=1;html=1;dashPattern=1 3;strokeWidth=2;rounded=0;entryX=0;entryY=0.5;entryDx=0;entryDy=0;" edge="1" parent="1dddkPMk4_G3S4zmDJPk-49" target="1dddkPMk4_G3S4zmDJPk-56">
          <mxGeometry width="50" height="50" relative="1" as="geometry">
            <mxPoint x="300" y="420" as="sourcePoint" />
            <mxPoint x="350" y="370" as="targetPoint" />
          </mxGeometry>
        </mxCell>
        <mxCell id="siGPidTASKNgbBdjduo_-1" value="" style="rounded=0;whiteSpace=wrap;html=1;" vertex="1" parent="1">
          <mxGeometry x="380" y="80" width="120" height="60" as="geometry" />
        </mxCell>
      </root>
    </mxGraphModel>
  </diagram>
</mxfile>
